<svg xmlns="http://www.w3.org/2000/svg" xmlns:xlink="http://www.w3.org/1999/xlink" viewBox="0 0 381 421.38"><defs><style>.cls-1{fill:url(#未命名漸層_7);}.cls-2{fill:#fff;}.cls-3{fill:url(#未命名漸層_9);}.cls-4{fill:url(#未命名漸層_7-2);}.cls-5{fill:url(#未命名漸層_8);}.cls-6{fill:none;}</style><linearGradient id="未命名漸層_7" x1="350.48" y1="105.66" x2="170.04" y2="286.09" gradientUnits="userSpaceOnUse"><stop offset="0" stop-color="#d4dfe6"/><stop offset="1" stop-color="#6aafe6"/></linearGradient><linearGradient id="未命名漸層_9" x1="68.6" y1="47.26" x2="255.75" y2="234.42" gradientUnits="userSpaceOnUse"><stop offset="0" stop-color="#d4dfe6"/><stop offset="0.03" stop-color="#d0dde6"/><stop offset="0.69" stop-color="#87bce6"/><stop offset="1" stop-color="#6aafe6"/></linearGradient><linearGradient id="未命名漸層_7-2" x1="313.7" y1="370.58" x2="116.34" y2="173.23" xlink:href="#未命名漸層_7"/><linearGradient id="未命名漸層_8" x1="32.11" y1="270.55" x2="239.02" y2="164.82" gradientUnits="userSpaceOnUse"><stop offset="0" stop-color="#d4dfe6"/><stop offset="1" stop-color="#6aafe6"/></linearGradient></defs><g id="圖層_2" data-name="圖層 2"><g id="圖層_1-2" data-name="圖層 1"><path class="cls-1" d="M381,135.35V286a59.82,59.82,0,0,1-6.6,27.34,185.06,185.06,0,0,0-108-188.44q-4-1.82-8.18-3.45l-2.07-.8-2.13-.79c-.68-.26-1.37-.5-2.06-.74l-2.41-.83-.12,0c-.56-.2-1.13-.38-1.7-.56l-2.12-.68-1.66-.51c-.48-.14-1-.29-1.43-.42s-.9-.27-1.36-.39l-1.82-.51-1-.27-.4-.1c-.81-.22-1.62-.43-2.44-.63-2.65-.67-5.31-1.27-8-1.81l-2.4-.47c-.8-.16-1.6-.3-2.4-.44l-2.42-.41-2-.31-2.92-.41c-.76-.11-1.52-.21-2.29-.3l-.16,0c-1-.12-1.92-.22-2.89-.32s-2-.21-3.06-.3l-2.67-.22-.73,0L200.8,109c-.6,0-1.19-.07-1.79-.09-.85,0-1.7-.08-2.56-.1h-.32a29.57,29.57,0,0,0-11.25,0,29.15,29.15,0,0,0-15,8l-63.72,63.72a29,29,0,0,0-7.42,12.58c0-.78.09-1.56.13-2.34s.1-1.48.16-2.22c.12-1.52.25-3,.4-4.55l.24-2.26q.12-1.12.27-2.25c.09-.73.19-1.46.28-2.19.13-.94.27-1.88.42-2.83.08-.56.17-1.12.26-1.68.2-1.24.41-2.47.64-3.71.13-.73.27-1.46.42-2.18s.29-1.49.45-2.23l.3-1.41c.1-.49.21-1,.32-1.46s.23-1,.36-1.56c.17-.73.34-1.45.52-2.17s.37-1.48.57-2.22.38-1.45.58-2.17c.12-.45.24-.89.37-1.33s.24-.87.37-1.3c.43-1.51.89-3,1.37-4.51.19-.61.39-1.21.59-1.81a181.93,181.93,0,0,1,8.07-20.34,185.8,185.8,0,0,1,75.16-81.93,183.84,183.84,0,0,1,53.43-20.63L351,83.38a60,60,0,0,1,30,52Z"/><path class="cls-2" d="M283.43,202.87c0,.15,0,.31,0,.46a29.17,29.17,0,0,1-8.56,20.53l-63.72,63.72a29,29,0,0,1-10.79,6.85h0a29.32,29.32,0,0,1-19.69,0h0a28.94,28.94,0,0,1-10.81-6.85l-63.72-63.72a29,29,0,0,1-7.53-13q-.27-1-.48-2a28.77,28.77,0,0,1-.54-6.13v0c0-.25,0-.51,0-.76,0-.1,0-.21,0-.31s0-.48.05-.72v-.08l.09-.89c0-.3.07-.61.12-.92s.09-.61.15-.92c.1-.59.23-1.17.37-1.76.08-.33.16-.65.25-1l.06-1.21h0a29,29,0,0,1,7.42-12.58l63.72-63.72a29.15,29.15,0,0,1,15-8,29.57,29.57,0,0,1,11.25,0,29.06,29.06,0,0,1,15,8l63.72,63.72a29.12,29.12,0,0,1,8.55,20v.32c0,.15,0,.31,0,.46a1.62,1.62,0,0,1,0,.22.29.29,0,0,1,0,.13Z"/><path class="cls-3" d="M97.56,202.63v.07a28.73,28.73,0,0,0,.54,5.13q.21,1,.48,2a29,29,0,0,0,7.53,13l63.72,63.72a28.94,28.94,0,0,0,10.81,6.85l-2.81-.17a183.86,183.86,0,0,1-63.75-16A185,185,0,0,1,5.45,110.35,60,60,0,0,1,30,83.38L136.86,21.69,160.5,8a60,60,0,0,1,60,0l23.87,13.78a183.84,183.84,0,0,0-53.43,20.63,185.8,185.8,0,0,0-75.16,81.93,181.93,181.93,0,0,0-8.07,20.34c-.2.6-.4,1.2-.59,1.81-.48,1.49-.94,3-1.37,4.51-.13.43-.25.87-.37,1.3s-.25.88-.37,1.33c-.2.72-.4,1.45-.58,2.17s-.39,1.48-.57,2.22-.35,1.44-.52,2.17c-.13.52-.24,1-.36,1.56s-.22,1-.32,1.46l-.3,1.41c-.16.74-.31,1.48-.45,2.23s-.29,1.45-.42,2.18c-.23,1.24-.44,2.47-.64,3.71-.09.56-.18,1.12-.26,1.68-.15.95-.29,1.89-.42,2.83-.09.73-.19,1.46-.28,2.19s-.19,1.5-.27,2.25L99.38,184c-.16,1.51-.29,3-.4,4.55-.06.74-.11,1.48-.16,2.22s-.09,1.56-.13,2.34h0l-.06,1.21c-.09.32-.17.64-.25,1-.14.59-.27,1.17-.37,1.76-.06.31-.11.61-.15.92s-.09.62-.12.92l-.09.89v.08c0,.24,0,.48-.05.72s0,.21,0,.31c0,.25,0,.51,0,.76v0Q97.54,202.17,97.56,202.63Z"/><path class="cls-4" d="M375.44,293.69a185.32,185.32,0,0,1-1,19.68h0A60,60,0,0,1,351,338l-84.71,48.9L220.5,413.34a60,60,0,0,1-60,0L114.83,387a183.78,183.78,0,0,0,76.11-24.05,185.63,185.63,0,0,0,77.11-86.26,184,184,0,0,0,15.38-73.09c0-.14,0-.28,0-.42v-.83c0-.15,0-.31,0-.46v-.19a.29.29,0,0,0,0-.13,1.62,1.62,0,0,0,0-.22c0-.15,0-.31,0-.46v-.32a29.12,29.12,0,0,0-8.55-20L211.16,116.8a29.06,29.06,0,0,0-15-8h.32l2.56.1c.6,0,1.19,0,1.79.09l2.76.17.73,0,2.67.22q1.54.14,3.06.3l2.89.32.16,0c.77.09,1.53.19,2.29.3l2.92.41,2,.31,2.42.41c.8.14,1.6.28,2.4.44l2.4.47c2.69.54,5.35,1.14,8,1.81.82.2,1.63.41,2.44.63l.4.1,1,.27,1.82.51c.46.12.91.26,1.36.39s.95.28,1.43.42l1.66.51,2.12.68c.57.18,1.14.36,1.7.56l.12,0,2.41.83,2.06.74,2.13.79,2.07.8q4.14,1.63,8.18,3.45A185,185,0,0,1,375.44,293.69Z"/><path class="cls-5" d="M283.44,202.33v.36a184.33,184.33,0,0,1-15.39,74,185.63,185.63,0,0,1-77.11,86.26A183.78,183.78,0,0,1,114.83,387L30,338A60.06,60.06,0,0,1,0,286V135.35a60.07,60.07,0,0,1,5.45-25A184.85,184.85,0,0,0,180.64,293.43h0a29.32,29.32,0,0,0,19.69,0h0a29,29,0,0,0,10.79-6.85l63.72-63.72A29.17,29.17,0,0,0,283.44,202.33Z"/><path class="cls-6" d="M98.69,193.11l-.06,1.21c-.09.32-.17.64-.25,1-.14.59-.27,1.17-.37,1.76-.06.31-.11.61-.15.92s-.09.62-.12.92l-.09.89v.08c0,.24,0,.48-.05.72s0,.21,0,.31c0,.25,0,.51,0,.76a29.05,29.05,0,0,1,1.07-8.33Z"/></g></g></svg>